<?xml version="1.0" encoding="utf-8"?>
<!-- Generator: Adobe Illustrator 24.2.3, SVG Export Plug-In . SVG Version: 6.00 Build 0)  -->
<svg version="1.1"
	 id="Layer_1" xmlns:cc="http://creativecommons.org/ns#" xmlns:dc="http://purl.org/dc/elements/1.1/" xmlns:inkscape="http://www.inkscape.org/namespaces/inkscape" xmlns:rdf="http://www.w3.org/1999/02/22-rdf-syntax-ns#" xmlns:sodipodi="http://sodipodi.sourceforge.net/DTD/sodipodi-0.dtd" xmlns:svg="http://www.w3.org/2000/svg"
	 xmlns="http://www.w3.org/2000/svg" xmlns:xlink="http://www.w3.org/1999/xlink" x="0px" y="0px" width="300px" height="300px"
	 viewBox="0 0 300 300" style="enable-background:new 0 0 300 300;" xml:space="preserve">
<style type="text/css">
	.st0{fill:#424242;}
</style>
<g>
	<path class="st0" d="M150,241.4c-34.6,0-68.7-12.7-96.6-33.5c-24.7-18.4-41.6-41.2-41.6-57.9s16.9-39.5,41.6-57.9
		c27.9-20.8,62-33.5,96.6-33.5s68.7,12.7,96.6,33.5c24.7,18.4,41.6,41.2,41.6,57.9s-16.9,39.5-41.6,57.9
		C218.7,228.7,184.6,241.4,150,241.4z M150,221.1c30,0,59.9-11.2,84.4-29.5c20.1-15,33.4-33,33.4-41.6s-13.3-26.7-33.4-41.6
		C209.9,90,180,78.9,150,78.9S90.1,90,65.6,108.4c-20.1,15-33.4,33-33.4,41.6s13.3,26.7,33.4,41.6C90.1,210,120,221.1,150,221.1z"/>
	<path class="st0" d="M152,204.9c-30.3,0-54.9-24.6-54.9-54.9s24.6-54.9,54.9-54.9s54.9,24.6,54.9,54.9S182.3,204.9,152,204.9z
		 M152,184.5c19.1,0,34.5-15.5,34.5-34.5s-15.5-34.5-34.5-34.5s-34.5,15.5-34.5,34.5S133,184.5,152,184.5z"/>
</g>
</svg>
