<?xml version="1.0" encoding="utf-8"?>
<!-- Generator: Adobe Illustrator 24.2.3, SVG Export Plug-In . SVG Version: 6.00 Build 0)  -->
<svg version="1.1"
	 id="Layer_1" xmlns:cc="http://creativecommons.org/ns#" xmlns:dc="http://purl.org/dc/elements/1.1/" xmlns:inkscape="http://www.inkscape.org/namespaces/inkscape" xmlns:rdf="http://www.w3.org/1999/02/22-rdf-syntax-ns#" xmlns:sodipodi="http://sodipodi.sourceforge.net/DTD/sodipodi-0.dtd" xmlns:svg="http://www.w3.org/2000/svg"
	 xmlns="http://www.w3.org/2000/svg" xmlns:xlink="http://www.w3.org/1999/xlink" x="0px" y="0px" width="300px" height="300px"
	 viewBox="0 0 300 300" style="enable-background:new 0 0 300 300;" xml:space="preserve">
<style type="text/css">
	.st0{fill:#424242;}
	.st1{fill:none;}
</style>
<path class="st0" d="M257,264.9c-2.6,0-5.1-1-7.1-2.9L40,52.1c-3.9-3.9-3.9-10.2,0-14.1c3.9-3.9,10.2-3.9,14.1,0L264,247.9
	c3.9,3.9,3.9,10.2,0,14.1C262.1,264,259.5,264.9,257,264.9z"/>
<g>
	<path class="st1" d="M152,204.9c-30.3,0-54.9-24.6-54.9-54.9c0-18.8,9.5-35.4,23.9-45.3l-17.3-17.3c-13.6,5-26.5,12.1-38.2,20.9
		c-20.1,15-33.4,33-33.4,41.6s13.3,26.7,33.4,41.6C90.1,210,120,221.1,150,221.1c23.7,0,47.4-7,68.4-19L197.3,181
		C187.4,195.4,170.8,204.9,152,204.9z"/>
	<path class="st1" d="M117.5,150c0,19.1,15.5,34.5,34.5,34.5c13.2,0,24.7-7.4,30.5-18.3l-46.7-46.7
		C124.9,125.3,117.5,136.8,117.5,150z"/>
	<path class="st0" d="M150,78.9c30,0,59.9,11.2,84.4,29.5c20.1,15,33.4,33,33.4,41.6c0,8.5-12.9,26.1-32.4,40.9l14.5,14.5
		c22.9-17.9,38.2-39.4,38.2-55.4c0-16.7-16.9-39.5-41.6-57.9c-27.9-20.8-62-33.5-96.6-33.5c-13.9,0-27.7,2-41,5.8l16.9,16.9
		C133.8,79.7,141.9,78.9,150,78.9z"/>
	<path class="st0" d="M150,221.1c-30,0-59.9-11.2-84.4-29.5c-20.1-15-33.4-33-33.4-41.6s13.3-26.7,33.4-41.6
		c11.7-8.7,24.6-15.8,38.2-20.9L88.2,71.9c-12.3,5.4-24,12.2-34.8,20.2c-24.7,18.4-41.6,41.2-41.6,57.9s16.9,39.5,41.6,57.9
		c27.9,20.8,62,33.5,96.6,33.5c29.3,0,58.2-9.1,83.3-24.5l-14.8-14.8C197.4,214.1,173.7,221.1,150,221.1z"/>
	<path class="st0" d="M152,184.5c-19.1,0-34.5-15.5-34.5-34.5c0-13.2,7.4-24.7,18.3-30.5L121,104.7c-14.4,9.9-23.9,26.5-23.9,45.3
		c0,30.3,24.6,54.9,54.9,54.9c18.8,0,35.4-9.5,45.3-23.9l-14.8-14.8C176.7,177.1,165.2,184.5,152,184.5z"/>
	<path class="st0" d="M185.3,140.7l20.4,20.4c1-5,1.4-10.3,1-15.7c-2.2-26.6-23.5-48-50.1-50.1c-5.4-0.4-10.7-0.1-15.7,1l20.4,20.4
		C172.9,120,182.1,129.1,185.3,140.7z"/>
</g>
</svg>
