<?xml version="1.0" encoding="utf-8"?>
<!-- Generator: Adobe Illustrator 24.2.3, SVG Export Plug-In . SVG Version: 6.00 Build 0)  -->
<svg version="1.1"
	 id="Layer_1" xmlns:cc="http://creativecommons.org/ns#" xmlns:dc="http://purl.org/dc/elements/1.1/" xmlns:inkscape="http://www.inkscape.org/namespaces/inkscape" xmlns:rdf="http://www.w3.org/1999/02/22-rdf-syntax-ns#" xmlns:sodipodi="http://sodipodi.sourceforge.net/DTD/sodipodi-0.dtd" xmlns:svg="http://www.w3.org/2000/svg"
	 xmlns="http://www.w3.org/2000/svg" xmlns:xlink="http://www.w3.org/1999/xlink" x="0px" y="0px" width="300px" height="300px"
	 viewBox="0 0 300 300" style="enable-background:new 0 0 300 300;" xml:space="preserve">
<style type="text/css">
	.st0{fill:#424242;}
</style>
<g>
	<path class="st0" d="M150,171c-46.1,0-83.5-37.5-83.5-83.5c0-46.1,37.5-83.5,83.5-83.5s83.5,37.5,83.5,83.5
		C233.5,133.5,196.1,171,150,171z M150,26.6c-33.5,0-60.8,27.3-60.8,60.8c0,33.5,27.3,60.8,60.8,60.8s60.8-27.3,60.8-60.8
		C210.8,53.9,183.5,26.6,150,26.6z"/>
</g>
<g>
	<path class="st0" d="M16.2,296.9c-1.3,0-2.6-0.2-3.8-0.7c-5.9-2.1-9-8.6-6.8-14.5C27.3,220.9,85.4,180.1,150,180.1
		c64.6,0,122.7,40.8,144.5,101.6c2.1,5.9-1,12.4-6.8,14.5c-5.9,2.1-12.4-0.9-14.5-6.8c-18.6-51.8-68.1-86.6-123.1-86.6
		S45.5,237.6,26.8,289.4C25.2,294,20.8,296.9,16.2,296.9z"/>
</g>
</svg>
