<?xml version="1.0" encoding="utf-8"?>
<!-- Generator: Adobe Illustrator 24.2.3, SVG Export Plug-In . SVG Version: 6.00 Build 0)  -->
<svg version="1.1"
	 id="Layer_1" xmlns:cc="http://creativecommons.org/ns#" xmlns:dc="http://purl.org/dc/elements/1.1/" xmlns:inkscape="http://www.inkscape.org/namespaces/inkscape" xmlns:rdf="http://www.w3.org/1999/02/22-rdf-syntax-ns#" xmlns:sodipodi="http://sodipodi.sourceforge.net/DTD/sodipodi-0.dtd" xmlns:svg="http://www.w3.org/2000/svg"
	 xmlns="http://www.w3.org/2000/svg" xmlns:xlink="http://www.w3.org/1999/xlink" x="0px" y="0px" width="300px" height="300px"
	 viewBox="0 0 300 300" style="enable-background:new 0 0 300 300;" xml:space="preserve">
<style type="text/css">
	.st0{fill:#424242;}
</style>
<g transform="translate(0,-952.36218)">
	<g>
		<path class="st0" d="M32.8,1013.7c-12.1,0-22.2,10.1-22.2,22.2v133.1c0,12.1,10.1,22.2,22.2,22.2h234.4
			c12.1,0,22.2-10.1,22.2-22.2v-133.1c0-12.1-10.1-22.2-22.2-22.2C267.2,1013.7,32.8,1013.7,32.8,1013.7z M44.8,1032.7h210.5
			l-101.8,90.7c-1.4,1.3-5.5,1.3-6.9,0L44.8,1032.7z M29.6,1044.6l67.9,60.4l-67.9,55.7V1044.6z M270.4,1044.6v116.1l-67.9-55.7
			L270.4,1044.6z M111.9,1117.9l22.1,19.6c9.2,8.2,22.8,8.2,32.1,0l22.1-19.6l65.9,54.2H45.9L111.9,1117.9L111.9,1117.9z"/>
	</g>
</g>
<image style="overflow:visible;" width="495" height="424" xlink:href="3B74294E.jpg"  transform="matrix(1 0 0 1 512.5249 -19.3782)">
</image>
</svg>
