<?xml version="1.0" encoding="utf-8"?>
<!-- Generator: Adobe Illustrator 24.2.3, SVG Export Plug-In . SVG Version: 6.00 Build 0)  -->
<svg version="1.1"
	 id="Layer_1" xmlns:cc="http://creativecommons.org/ns#" xmlns:dc="http://purl.org/dc/elements/1.1/" xmlns:inkscape="http://www.inkscape.org/namespaces/inkscape" xmlns:rdf="http://www.w3.org/1999/02/22-rdf-syntax-ns#" xmlns:sodipodi="http://sodipodi.sourceforge.net/DTD/sodipodi-0.dtd" xmlns:svg="http://www.w3.org/2000/svg"
	 xmlns="http://www.w3.org/2000/svg" xmlns:xlink="http://www.w3.org/1999/xlink" x="0px" y="0px" width="300px" height="300px"
	 viewBox="0 0 300 300" style="enable-background:new 0 0 300 300;" xml:space="preserve">
<style type="text/css">
	.st0{fill:#424242;}
</style>
<g>
	<path class="st0" d="M226.3,130.9V80.2c0-42.1-34.2-76.3-76.2-76.3c-42.1,0-76.3,34.2-76.3,76.3v50.7c-21.9,2-39.1,20.3-39.1,42.7
		V253c0,23.7,19.3,43.1,43.1,43.1h144.5c23.8,0,43.1-19.3,43.1-43.1v-79.4C265.3,151.2,248.1,132.9,226.3,130.9z M150,23.6
		c31.2,0,56.6,25.4,56.6,56.6v50.3H93.4V80.2C93.4,49,118.8,23.6,150,23.6z M245.7,253c0,12.9-10.5,23.4-23.4,23.4H77.7
		c-12.9,0-23.4-10.5-23.4-23.4v-79.4c0-12.9,10.5-23.4,23.4-23.4h144.5c12.9,0,23.4,10.5,23.4,23.4L245.7,253L245.7,253z"/>
	<path class="st0" d="M150,180.9c-5.4,0-9.8,4.4-9.8,9.8v45c0,5.4,4.4,9.8,9.8,9.8s9.8-4.4,9.8-9.8v-45
		C159.8,185.3,155.4,180.9,150,180.9z"/>
</g>
</svg>
